<?xml version="1.0" encoding="UTF-8" standalone="no"?><!DOCTYPE svg PUBLIC "-//W3C//DTD SVG 1.1//EN" "http://www.w3.org/Graphics/SVG/1.1/DTD/svg11.dtd"><svg width="100%" height="100%" viewBox="0 0 123 36" version="1.1" xmlns="http://www.w3.org/2000/svg" xmlns:xlink="http://www.w3.org/1999/xlink" xml:space="preserve" xmlns:serif="http://www.serif.com/" style="fill-rule:evenodd;clip-rule:evenodd;stroke-linejoin:round;stroke-miterlimit:2;"><g><path d="M5.26,25.51l16.85,-14.36l2.05,5.55l-8.91,7.01c-1.11,0.87 -2.26,1.69 -3.44,2.46c-1.18,0.77 -2.41,1.57 -3.67,2.39l-0.41,-1.12c1.49,-0.2 2.94,-0.4 4.33,-0.58c1.4,-0.18 2.8,-0.31 4.21,-0.39l11.31,-0.49l2.03,5.5l-22.15,-0l-2.2,-5.96Z" style="fill:#9137be;fill-rule:nonzero;"/><path d="M40.47,31.88c-2.06,0 -3.84,-0.44 -5.34,-1.33c-1.5,-0.88 -2.66,-2.12 -3.47,-3.71c-0.81,-1.59 -1.22,-3.43 -1.22,-5.54c0,-2.12 0.41,-3.98 1.22,-5.57c0.81,-1.59 1.97,-2.83 3.47,-3.71c1.5,-0.88 3.28,-1.33 5.34,-1.33c2.06,0 3.85,0.44 5.35,1.33c1.5,0.88 2.66,2.12 3.47,3.71c0.81,1.59 1.22,3.45 1.22,5.57c0,2.1 -0.41,3.95 -1.22,5.54c-0.81,1.59 -1.97,2.82 -3.47,3.71c-1.5,0.88 -3.28,1.33 -5.35,1.33Zm0,-4.33c0.98,0 1.8,-0.27 2.46,-0.82c0.66,-0.54 1.15,-1.29 1.48,-2.23c0.33,-0.94 0.49,-2.01 0.49,-3.21c0,-1.21 -0.16,-2.28 -0.49,-3.22c-0.33,-0.94 -0.82,-1.68 -1.48,-2.22c-0.66,-0.54 -1.48,-0.81 -2.46,-0.81c-0.98,0 -1.8,0.27 -2.46,0.81c-0.66,0.54 -1.15,1.28 -1.48,2.22c-0.33,0.94 -0.49,2.01 -0.49,3.23c0,1.19 0.16,2.26 0.49,3.21c0.33,0.94 0.82,1.69 1.48,2.23c0.66,0.54 1.48,0.82 2.46,0.82Z" style="fill:#9137be;fill-rule:nonzero;"/><path d="M54.22,31.48l0,-20.52l5.34,0l0,3.57l0.22,0c0.37,-1.27 1,-2.22 1.89,-2.87c0.89,-0.65 1.91,-0.98 3.06,-0.98c0.28,0 0.59,0.02 0.92,0.05c0.33,0.03 0.61,0.08 0.86,0.14l0,4.92c-0.24,-0.08 -0.6,-0.15 -1.07,-0.2c-0.47,-0.05 -0.91,-0.08 -1.31,-0.08c-0.84,0 -1.59,0.18 -2.26,0.55c-0.67,0.36 -1.19,0.87 -1.57,1.51c-0.38,0.64 -0.57,1.39 -0.57,2.24l0,11.68l-5.5,0Z" style="fill:#9137be;fill-rule:nonzero;"/><path d="M74.82,25.46l0,-6.62l0.83,0l6.71,-7.89l6.36,0l-8.87,10.29l-1.3,0l-3.75,4.22Zm-5,6.01l0,-27.35l5.5,0l0,27.35l-5.5,0Zm12.81,0l-6.15,-9l3.68,-3.91l8.96,12.91l-6.49,0Z" style="fill:#9137be;fill-rule:nonzero;"/><path d="M99.38,31.86c-1.65,0 -3.11,-0.24 -4.39,-0.71c-1.27,-0.47 -2.31,-1.16 -3.12,-2.05c-0.81,-0.9 -1.33,-1.98 -1.57,-3.25l5.13,-0.88c0.27,0.95 0.74,1.67 1.41,2.15c0.67,0.48 1.57,0.72 2.69,0.72c1.05,0 1.88,-0.2 2.49,-0.6c0.61,-0.4 0.91,-0.91 0.91,-1.52c0,-0.54 -0.22,-0.98 -0.65,-1.32c-0.43,-0.34 -1.1,-0.61 -2,-0.79l-3.53,-0.73c-1.98,-0.41 -3.46,-1.1 -4.44,-2.07c-0.98,-0.97 -1.47,-2.22 -1.47,-3.76c0,-1.31 0.36,-2.44 1.08,-3.39c0.72,-0.95 1.72,-1.68 3.01,-2.2c1.29,-0.51 2.8,-0.77 4.53,-0.77c1.63,0 3.03,0.22 4.22,0.67c1.19,0.45 2.15,1.08 2.88,1.9c0.73,0.82 1.22,1.78 1.48,2.9l-4.89,0.86c-0.22,-0.7 -0.62,-1.27 -1.21,-1.72c-0.59,-0.44 -1.39,-0.67 -2.38,-0.67c-0.91,0 -1.67,0.19 -2.28,0.57c-0.61,0.38 -0.92,0.88 -0.92,1.51c0,0.51 0.2,0.95 0.59,1.31c0.4,0.36 1.08,0.64 2.05,0.84l3.69,0.73c1.99,0.4 3.46,1.06 4.43,1.97c0.97,0.91 1.45,2.1 1.45,3.57c0,1.34 -0.39,2.52 -1.18,3.53c-0.78,1.01 -1.87,1.79 -3.25,2.36c-1.38,0.56 -2.97,0.84 -4.76,0.84Z" style="fill:#9137be;fill-rule:nonzero;"/><path d="M114.44,31.86c-0.9,0 -1.65,-0.3 -2.26,-0.91c-0.61,-0.61 -0.92,-1.35 -0.92,-2.24c0,-0.89 0.31,-1.64 0.92,-2.24c0.61,-0.61 1.37,-0.91 2.26,-0.91c0.9,0 1.65,0.3 2.26,0.91c0.61,0.61 0.92,1.35 0.92,2.24c0,0.89 -0.31,1.64 -0.92,2.24c-0.61,0.61 -1.37,0.91 -2.26,0.91Z" style="fill:#9137be;fill-rule:nonzero;"/></g></svg>